<?xml version="1.0" standalone="no"?>
<!DOCTYPE svg PUBLIC "-//W3C//DTD SVG 20010904//EN"
 "http://www.w3.org/TR/2001/REC-SVG-20010904/DTD/svg10.dtd">
<svg version="1.0" xmlns="http://www.w3.org/2000/svg"
 width="826.000000pt" height="116.000000pt" viewBox="0 0 826.000000 116.000000"
 preserveAspectRatio="xMidYMid meet">
<metadata>
Created by potrace 1.10, written by Peter Selinger 2001-2011
</metadata>
<g transform="translate(0.000000,116.000000) scale(0.100000,-0.100000)"
fill="#000000" stroke="none">
<path d="M62 1058 c-16 -16 -15 -37 3 -44 23 -9 22 -219 -1 -228 -9 -3 -14
-15 -12 -28 3 -21 8 -23 73 -23 68 0 70 1 70 25 0 20 -6 26 -27 28 -28 3 -28
4 -28 83 0 43 2 79 3 79 2 0 16 -31 31 -70 25 -64 30 -70 56 -70 26 0 31 6 56
70 15 39 29 70 31 70 1 0 3 -36 3 -79 0 -79 0 -80 -27 -83 -22 -2 -28 -8 -28
-28 l0 -25 115 -3 c140 -3 162 1 158 31 -2 14 -11 23 -26 25 -13 2 -21 9 -19
15 5 18 138 22 148 5 6 -9 1 -15 -14 -18 -15 -4 -22 -13 -22 -30 l0 -25 165
-2 c140 -2 170 0 200 15 54 27 80 74 80 145 0 80 -32 138 -90 161 -52 21 -192
22 -209 2 -14 -16 -4 -46 15 -46 20 0 20 -215 0 -223 -43 -17 -71 29 -155 256
-11 28 -12 28 -88 25 -76 -3 -78 -4 -78 -28 0 -21 5 -26 33 -28 18 -2 32 -7
30 -11 -2 -5 -21 -54 -43 -110 -36 -90 -43 -101 -65 -101 l-25 0 3 107 c3 86
7 109 20 119 29 22 3 48 -50 52 -42 3 -47 1 -56 -25 -6 -15 -22 -55 -35 -87
l-25 -59 -36 78 c-20 43 -36 82 -36 86 0 14 -84 11 -98 -3z m78 -74 c0 -8 -4
-14 -10 -14 -5 0 -10 9 -10 21 0 11 5 17 10 14 6 -3 10 -13 10 -21z m196 1
c-3 -9 -11 -13 -16 -10 -8 5 -7 11 1 21 14 18 24 11 15 -11z m625 -4 c25 -25
29 -37 29 -84 0 -77 -20 -99 -93 -105 l-57 -4 0 111 0 111 46 0 c37 0 51 -5
75 -29z m-372 -38 c7 -21 15 -44 17 -50 4 -9 -7 -13 -39 -13 l-45 0 21 50 c11
28 24 50 27 50 4 0 12 -17 19 -37z"/>
<path d="M1091 1056 c-15 -18 -3 -46 20 -46 17 0 19 -9 19 -110 0 -87 -3 -110
-14 -110 -7 0 -19 -7 -26 -15 -10 -12 -10 -18 0 -30 10 -12 41 -15 157 -15
l144 0 -3 62 c-2 52 -6 63 -22 66 -22 5 -36 -13 -36 -45 0 -22 -4 -23 -70 -23
l-70 0 0 40 c0 35 3 40 24 40 15 0 26 -7 29 -20 6 -24 42 -27 51 -4 8 20 8 88
0 108 -9 23 -45 20 -51 -4 -3 -13 -14 -20 -29 -20 -21 0 -24 5 -24 40 l0 40
64 0 65 0 3 -32 c2 -23 9 -34 22 -36 26 -5 36 15 36 76 l0 52 -139 0 c-105 0
-141 -3 -150 -14z"/>
<path d="M1812 1061 c-8 -5 -12 -17 -10 -27 2 -15 14 -20 51 -22 l47 -3 0
-109 0 -109 -47 -3 c-44 -3 -48 -5 -48 -28 l0 -25 120 0 120 0 0 25 c0 23 -4
25 -47 28 l-48 3 0 109 0 109 47 3 c37 2 49 7 51 22 6 29 -16 36 -123 36 -55
0 -106 -4 -113 -9z"/>
<path d="M2102 1061 c-21 -13 -10 -46 16 -49 21 -3 22 -7 22 -112 0 -101 -1
-108 -21 -113 -15 -4 -20 -12 -17 -29 3 -22 7 -23 73 -23 68 0 70 1 70 25 0
20 -6 26 -27 28 -28 3 -28 4 -28 83 0 75 10 100 25 62 3 -10 32 -59 63 -110
53 -86 59 -92 90 -93 l32 0 0 139 c0 114 3 140 15 145 20 7 19 42 -1 50 -23 9
-107 7 -122 -3 -23 -14 -10 -46 21 -49 27 -3 27 -4 27 -83 0 -43 -2 -79 -4
-79 -2 0 -35 49 -72 110 l-69 110 -40 0 c-22 0 -46 -4 -53 -9z"/>
<path d="M2472 1061 c-21 -13 -10 -46 16 -49 21 -3 22 -7 22 -112 0 -105 -1
-109 -22 -112 -17 -2 -23 -10 -23 -28 0 -25 0 -25 95 -25 95 0 95 0 95 25 0
23 -4 25 -45 28 l-45 3 0 39 c0 37 2 40 27 40 16 0 27 -3 27 -7 -4 -25 3 -34
24 -31 20 3 22 8 22 68 0 60 -2 65 -22 68 -21 3 -28 -6 -24 -30 0 -5 -11 -8
-27 -8 -25 0 -27 3 -27 40 l0 40 72 0 73 0 0 -30 c0 -34 22 -49 45 -30 10 8
15 31 15 66 l0 54 -142 0 c-79 0 -149 -4 -156 -9z"/>
<path d="M2824 1055 c-12 -30 4 -45 48 -45 l43 0 0 -107 0 -108 -45 -5 c-40
-4 -45 -8 -45 -30 0 -25 0 -25 111 -28 90 -2 113 0 124 13 22 27 5 45 -45 45
l-45 0 0 110 0 110 45 0 c49 0 67 18 45 45 -18 22 -228 22 -236 0z"/>
<path d="M3114 1055 c-9 -22 3 -45 23 -45 16 0 18 -11 18 -109 0 -98 -2 -110
-18 -115 -13 -3 -18 -12 -15 -28 3 -22 7 -23 73 -23 68 0 70 1 70 25 0 20 -6
26 -27 28 -28 3 -28 4 -28 83 0 43 2 79 4 79 2 0 34 -49 72 -110 65 -103 71
-109 102 -110 l34 0 -4 139 c-3 127 -1 140 15 145 9 2 17 13 17 25 0 25 -27
33 -96 29 -45 -3 -49 -5 -49 -28 0 -20 6 -26 28 -28 27 -3 27 -3 27 -83 0 -44
-4 -78 -8 -75 -4 2 -37 52 -72 110 l-65 106 -48 0 c-33 0 -49 -5 -53 -15z"/>
<path d="M3504 1055 c-12 -30 4 -45 46 -45 l40 0 0 -109 0 -110 -42 -3 c-38
-3 -43 -6 -43 -28 0 -25 0 -25 111 -28 90 -2 113 0 124 13 22 27 5 45 -45 45
l-45 0 0 110 0 110 45 0 c49 0 67 18 45 45 -18 22 -228 22 -236 0z"/>
<path d="M3810 1008 c0 -71 9 -92 36 -86 14 2 20 13 22 46 3 39 5 42 33 42
l29 0 0 -110 0 -110 -29 0 c-37 0 -59 -24 -41 -45 17 -20 182 -22 199 -1 19
23 2 46 -35 46 l-34 0 0 110 0 110 29 0 c28 0 30 -3 33 -42 3 -38 6 -43 28
-43 24 0 25 3 28 73 l3 72 -151 0 -150 0 0 -62z"/>
<path d="M4144 1055 c-9 -22 3 -45 23 -45 16 0 18 -11 18 -110 0 -102 -1 -109
-20 -112 -14 -2 -20 -11 -20 -28 l0 -25 153 -3 152 -3 0 40 c0 55 -16 93 -38
89 -11 -2 -18 -14 -20 -36 l-3 -32 -75 0 -74 0 0 40 c0 35 3 40 24 40 16 0 26
-7 29 -21 4 -15 12 -20 29 -17 21 3 23 8 23 68 0 60 -2 65 -23 68 -17 3 -25
-2 -29 -17 -3 -14 -13 -21 -29 -21 -21 0 -24 5 -24 40 l0 40 69 0 c66 0 68 -1
64 -23 -5 -27 19 -52 42 -43 11 4 15 21 15 66 l0 60 -140 0 c-116 0 -142 -3
-146 -15z"/>
<path d="M1394 605 c-4 -8 -1 -22 6 -30 11 -13 42 -15 194 -13 l181 3 0 25 0
25 -188 3 c-161 2 -188 0 -193 -13z"/>
</g>
</svg>
